<svg width="16" height="16" viewBox="0 0 16 16" fill="none" xmlns="http://www.w3.org/2000/svg">
<g id="vuesax/linear/document-copy">
<path id="Vector" d="M11.3333 8.93335V10.9334C11.3333 13.6 10.2667 14.6667 7.59999 14.6667H5.06666C2.39999 14.6667 1.33333 13.6 1.33333 10.9334V8.40002C1.33333 5.73335 2.39999 4.66669 5.06666 4.66669H7.06666" stroke="#292D32" stroke-width="1.5" stroke-linecap="round" stroke-linejoin="round"/>
<path id="Vector_2" d="M11.3333 8.93335H9.2C7.6 8.93335 7.06667 8.40002 7.06667 6.80002V4.66669L11.3333 8.93335Z" stroke="#292D32" stroke-width="1.5" stroke-linecap="round" stroke-linejoin="round"/>
<path id="Vector_3" d="M7.73334 1.33331H10.4" stroke="#292D32" stroke-width="1.5" stroke-linecap="round" stroke-linejoin="round"/>
<path id="Vector_4" d="M4.66667 3.33331C4.66667 2.22665 5.56001 1.33331 6.66667 1.33331H8.41334" stroke="#292D32" stroke-width="1.5" stroke-linecap="round" stroke-linejoin="round"/>
<path id="Vector_5" d="M14.6667 5.33331V9.45998C14.6667 10.4933 13.8267 11.3333 12.7933 11.3333" stroke="#292D32" stroke-width="1.5" stroke-linecap="round" stroke-linejoin="round"/>
<path id="Vector_6" d="M14.6667 5.33331H12.6667C11.1667 5.33331 10.6667 4.83331 10.6667 3.33331V1.33331L14.6667 5.33331Z" stroke="#292D32" stroke-width="1.5" stroke-linecap="round" stroke-linejoin="round"/>
</g></svg>